<svg width="31" height="31" viewBox="0 0 31 31" fill="none" xmlns="http://www.w3.org/2000/svg">
<g clip-path="url(#clip0_3817_21222)">
<mask id="mask0_3817_21222" style="mask-type:alpha" maskUnits="userSpaceOnUse" x="0" y="0" width="31" height="31">
<rect x="30.5859" y="0.23175" width="30" height="30" transform="rotate(90 30.5859 0.23175)" fill="#D9D9D9"/>
</mask>
<g mask="url(#mask0_3817_21222)">
<path d="M15.5859 16.9493L22.5814 9.50656C22.9103 9.15669 23.3288 8.98175 23.837 8.98175C24.3453 8.98175 24.7638 9.15669 25.0926 9.50656C25.4215 9.85643 25.5859 10.3017 25.5859 10.8424C25.5859 11.3831 25.4215 11.8284 25.0926 12.1783L16.8415 20.9569C16.6622 21.1478 16.4678 21.283 16.2586 21.3625C16.0493 21.442 15.8251 21.4818 15.5859 21.4818C15.3468 21.4818 15.1225 21.442 14.9133 21.3625C14.704 21.283 14.5097 21.1478 14.3303 20.9569L6.0792 12.1783C5.75035 11.8284 5.58592 11.3831 5.58592 10.8424C5.58592 10.3017 5.75035 9.85643 6.0792 9.50656C6.40805 9.15669 6.82658 8.98175 7.3348 8.98175C7.84302 8.98175 8.26156 9.15669 8.59041 9.50656L15.5859 16.9493Z" fill="white"/>
</g>
</g>
<defs>
<clipPath id="clip0_3817_21222">
<rect width="30" height="30" fill="white" transform="translate(0.585938 0.23175)"/>
</clipPath>
</defs>
</svg>
