<svg width="31" height="31" viewBox="0 0 31 31" fill="none" xmlns="http://www.w3.org/2000/svg">
<g clip-path="url(#clip0_3817_21247)">
<mask id="mask0_3817_21247" style="mask-type:alpha" maskUnits="userSpaceOnUse" x="0" y="0" width="31" height="31">
<rect x="0.585938" y="0.23175" width="30" height="30" fill="#D9D9D9"/>
</mask>
<g mask="url(#mask0_3817_21247)">
<path d="M15.5859 25.2318C15.2318 25.2318 14.9349 25.112 14.6953 24.8724C14.4557 24.6328 14.3359 24.3359 14.3359 23.9818V16.4818H6.83594C6.48177 16.4818 6.1849 16.362 5.94531 16.1224C5.70573 15.8828 5.58594 15.5859 5.58594 15.2318C5.58594 14.8776 5.70573 14.5807 5.94531 14.3411C6.1849 14.1015 6.48177 13.9818 6.83594 13.9818H14.3359V6.48175C14.3359 6.12758 14.4557 5.83071 14.6953 5.59113C14.9349 5.35154 15.2318 5.23175 15.5859 5.23175C15.9401 5.23175 16.237 5.35154 16.4766 5.59113C16.7161 5.83071 16.8359 6.12758 16.8359 6.48175V13.9818H24.3359C24.6901 13.9818 24.987 14.1015 25.2266 14.3411C25.4661 14.5807 25.5859 14.8776 25.5859 15.2318C25.5859 15.5859 25.4661 15.8828 25.2266 16.1224C24.987 16.362 24.6901 16.4818 24.3359 16.4818H16.8359V23.9818C16.8359 24.3359 16.7161 24.6328 16.4766 24.8724C16.237 25.112 15.9401 25.2318 15.5859 25.2318Z" fill="white"/>
</g>
</g>
<defs>
<clipPath id="clip0_3817_21247">
<rect width="30" height="30" fill="white" transform="translate(0.585938 0.23175)"/>
</clipPath>
</defs>
</svg>
