<svg width="31" height="31" viewBox="0 0 31 31" fill="none" xmlns="http://www.w3.org/2000/svg">
<mask id="mask0_4699_12150" style="mask-type:alpha" maskUnits="userSpaceOnUse" x="0" y="0" width="31" height="31">
<rect width="30" height="30" transform="matrix(-1 0 0 1 30.5859 0.23175)" fill="#D9D9D9"/>
</mask>
<g mask="url(#mask0_4699_12150)">
<path d="M17.3684 27.278C17.6627 26.9754 17.8165 26.5904 17.8299 26.1228C17.8433 25.6553 17.7028 25.2703 17.4086 24.9677L9.5434 16.8819H27.4808C27.9356 16.8819 28.3168 16.7238 28.6245 16.4075C28.9321 16.0912 29.0859 15.6993 29.0859 15.2318C29.0859 14.7642 28.9321 14.3723 28.6245 14.056C28.3168 13.7397 27.9356 13.5816 27.4808 13.5816H9.5434L17.4086 5.49578C17.7028 5.19325 17.8433 4.80821 17.8299 4.34066C17.8165 3.87311 17.6627 3.48808 17.3684 3.18555C17.0742 2.88302 16.6996 2.73175 16.2448 2.73175C15.7901 2.73175 15.4155 2.88302 15.1213 3.18555L4.52735 14.0766C4.36683 14.2141 4.25314 14.386 4.18626 14.5923C4.11938 14.7986 4.08594 15.0117 4.08594 15.2318C4.08594 15.4518 4.11938 15.658 4.18626 15.8506C4.25314 16.0431 4.36683 16.2219 4.52735 16.3869L15.1213 27.278C15.4155 27.5805 15.7901 27.7318 16.2448 27.7318C16.6996 27.7318 17.0742 27.5805 17.3684 27.278Z" fill="white"/>
</g>
</svg>
