<svg width="31" height="31" viewBox="0 0 31 31" fill="none" xmlns="http://www.w3.org/2000/svg">
<mask id="mask0_4699_12156" style="mask-type:alpha" maskUnits="userSpaceOnUse" x="0" y="0" width="31" height="31">
<rect x="0.0859375" y="0.23175" width="30" height="30" fill="#D9D9D9"/>
</mask>
<g mask="url(#mask0_4699_12156)">
<path d="M13.3034 27.278C13.0092 26.9754 12.8553 26.5904 12.842 26.1228C12.8286 25.6553 12.969 25.2703 13.2633 24.9677L21.1285 16.8819H3.19107C2.73629 16.8819 2.35507 16.7238 2.04741 16.4075C1.73976 16.0912 1.58594 15.6993 1.58594 15.2318C1.58594 14.7642 1.73976 14.3723 2.04741 14.056C2.35507 13.7397 2.73629 13.5816 3.19107 13.5816H21.1285L13.2633 5.49578C12.969 5.19325 12.8286 4.80821 12.842 4.34066C12.8553 3.87311 13.0092 3.48808 13.3034 3.18555C13.5977 2.88302 13.9722 2.73175 14.427 2.73175C14.8818 2.73175 15.2563 2.88302 15.5506 3.18555L26.1445 14.0766C26.305 14.2141 26.4187 14.386 26.4856 14.5923C26.5525 14.7986 26.5859 15.0117 26.5859 15.2318C26.5859 15.4518 26.5525 15.658 26.4856 15.8506C26.4187 16.0431 26.305 16.2219 26.1445 16.3869L15.5506 27.278C15.2563 27.5805 14.8818 27.7318 14.427 27.7318C13.9722 27.7318 13.5977 27.5805 13.3034 27.278Z" fill="white"/>
</g>
</svg>
