<svg width="31" height="31" viewBox="0 0 31 31" fill="none" xmlns="http://www.w3.org/2000/svg">
<mask id="mask0_3817_21178" style="mask-type:alpha" maskUnits="userSpaceOnUse" x="0" y="0" width="31" height="31">
<rect x="0.585938" y="0.23175" width="30" height="30" fill="#D9D9D9"/>
</mask>
<g mask="url(#mask0_3817_21178)">
<path d="M15.5859 27.7318C13.8568 27.7318 12.2318 27.4036 10.7109 26.7474C9.1901 26.0911 7.86719 25.2005 6.74219 24.0755C5.61719 22.9505 4.72656 21.6276 4.07031 20.1068C3.41406 18.5859 3.08594 16.9609 3.08594 15.2318C3.08594 13.5026 3.41406 11.8776 4.07031 10.3568C4.72656 8.83592 5.61719 7.513 6.74219 6.388C7.86719 5.263 9.1901 4.37238 10.7109 3.71613C12.2318 3.05988 13.8568 2.73175 15.5859 2.73175C17.3151 2.73175 18.9401 3.05988 20.4609 3.71613C21.9818 4.37238 23.3047 5.263 24.4297 6.388C25.5547 7.513 26.4453 8.83592 27.1016 10.3568C27.7578 11.8776 28.0859 13.5026 28.0859 15.2318C28.0859 16.9609 27.7578 18.5859 27.1016 20.1068C26.4453 21.6276 25.5547 22.9505 24.4297 24.0755C23.3047 25.2005 21.9818 26.0911 20.4609 26.7474C18.9401 27.4036 17.3151 27.7318 15.5859 27.7318ZM15.5859 25.2318C18.3776 25.2318 20.7422 24.263 22.6797 22.3255C24.6172 20.388 25.5859 18.0234 25.5859 15.2318C25.5859 12.4401 24.6172 10.0755 22.6797 8.138C20.7422 6.2005 18.3776 5.23175 15.5859 5.23175C12.7943 5.23175 10.4297 6.2005 8.49219 8.138C6.55469 10.0755 5.58594 12.4401 5.58594 15.2318C5.58594 18.0234 6.55469 20.388 8.49219 22.3255C10.4297 24.263 12.7943 25.2318 15.5859 25.2318Z" fill="white"/>
<path d="M15.615 16.2238L11.3864 20.4523C11.2494 20.5893 11.1019 20.6553 10.944 20.6502C10.786 20.6452 10.6354 20.571 10.492 20.4276C10.3487 20.2842 10.277 20.131 10.277 19.968C10.277 19.805 10.3487 19.6518 10.492 19.5085L14.6959 15.3046L10.4673 11.076C10.3303 10.939 10.2643 10.7874 10.2694 10.6212C10.2744 10.455 10.3487 10.3003 10.492 10.1569C10.6354 10.0135 10.7886 9.94183 10.9516 9.94183C11.1146 9.94183 11.2678 10.0135 11.4112 10.1569L15.615 14.3855L19.8436 10.1569C19.9806 10.0199 20.1322 9.94977 20.2984 9.94661C20.4646 9.94342 20.6194 10.0135 20.7627 10.1569C20.9061 10.3003 20.9778 10.4534 20.9778 10.6165C20.9778 10.7795 20.9061 10.9327 20.7627 11.076L16.5342 15.3046L20.7627 19.5332C20.8997 19.6702 20.9698 19.8177 20.973 19.9756C20.9762 20.1336 20.9061 20.2842 20.7627 20.4276C20.6194 20.571 20.4662 20.6426 20.3032 20.6426C20.1401 20.6426 19.987 20.571 19.8436 20.4276L15.615 16.2238Z" fill="white"/>
</g>
</svg>
