<svg width="31" height="31" viewBox="0 0 31 31" fill="none" xmlns="http://www.w3.org/2000/svg">
<g clip-path="url(#clip0_3756_5044)">
<mask id="mask0_3756_5044" style="mask-type:alpha" maskUnits="userSpaceOnUse" x="0" y="0" width="31" height="31">
<rect x="0.585938" y="0.23175" width="30" height="30" fill="#D9D9D9"/>
</mask>
<g mask="url(#mask0_3756_5044)">
<path fill-rule="evenodd" clip-rule="evenodd" d="M10.9297 26.2943C12.388 26.9193 13.943 27.2318 15.5946 27.2318C17.2461 27.2318 18.7982 26.9193 20.2508 26.2943C21.7034 25.6693 22.9766 24.8099 24.0703 23.7161C25.1641 22.6224 26.0234 21.3463 26.6484 19.888C27.2734 18.4297 27.5859 16.8747 27.5859 15.2231C27.5859 13.5716 27.2734 12.0195 26.6484 10.5669C26.0234 9.11429 25.1641 7.84113 24.0703 6.74738C22.9766 5.65363 21.7057 4.79425 20.2578 4.16925C18.8099 3.54425 17.2574 3.23175 15.6003 3.23175C13.9431 3.23175 12.3859 3.54425 10.9284 4.16925C9.47092 4.79425 8.19531 5.65363 7.10156 6.74738C6.00781 7.84113 5.14844 9.11196 4.52344 10.5599C3.89844 12.0078 3.58594 13.5603 3.58594 15.2174C3.58594 16.8745 3.89844 18.4318 4.52344 19.8893C5.14844 21.3468 6.00781 22.6224 7.10156 23.7161C8.19531 24.8099 9.47135 25.6693 10.9297 26.2943ZM9.90938 16.0352C10.125 16.2496 10.3922 16.3568 10.7109 16.3568H20.4609C20.7797 16.3568 21.0469 16.2474 21.2625 16.0286C21.4781 15.8099 21.5859 15.5421 21.5859 15.2252C21.5859 14.9083 21.4781 14.6427 21.2625 14.4283C21.0469 14.2139 20.7797 14.1068 20.4609 14.1068H10.7109C10.3922 14.1068 10.125 14.2161 9.90938 14.4349C9.69375 14.6536 9.58594 14.9214 9.58594 15.2383C9.58594 15.5552 9.69375 15.8208 9.90938 16.0352Z" fill="#AB2B2B"/>
</g>
</g>
<defs>
<clipPath id="clip0_3756_5044">
<rect width="30" height="30" fill="white" transform="translate(0.585938 0.23175)"/>
</clipPath>
</defs>
</svg>
