<svg width="31" height="31" viewBox="0 0 31 31" fill="none" xmlns="http://www.w3.org/2000/svg">
<g clip-path="url(#clip0_3756_5024)">
<mask id="mask0_3756_5024" style="mask-type:alpha" maskUnits="userSpaceOnUse" x="0" y="0" width="31" height="31">
<rect x="0.585938" y="0.23175" width="30" height="30" fill="#D9D9D9"/>
</mask>
<g mask="url(#mask0_3756_5024)">
<path d="M14.4609 16.3568V20.1068C14.4609 20.4255 14.5681 20.6927 14.7825 20.9083C14.9968 21.1239 15.2625 21.2318 15.5793 21.2318C15.8962 21.2318 16.1641 21.1239 16.3828 20.9083C16.6016 20.6927 16.7109 20.4255 16.7109 20.1068V16.3568H20.4609C20.7797 16.3568 21.0469 16.2496 21.2625 16.0352C21.4781 15.8208 21.5859 15.5552 21.5859 15.2383C21.5859 14.9214 21.4781 14.6536 21.2625 14.4349C21.0469 14.2161 20.7797 14.1068 20.4609 14.1068H16.7109V10.3568C16.7109 10.038 16.6038 9.77081 16.3894 9.55519C16.175 9.33956 15.9094 9.23175 15.5925 9.23175C15.2756 9.23175 15.0078 9.33956 14.7891 9.55519C14.5703 9.77081 14.4609 10.038 14.4609 10.3568V14.1068H10.7109C10.3922 14.1068 10.125 14.2139 9.90938 14.4283C9.69375 14.6427 9.58594 14.9083 9.58594 15.2252C9.58594 15.5421 9.69375 15.8099 9.90938 16.0286C10.125 16.2474 10.3922 16.3568 10.7109 16.3568H14.4609ZM15.5946 27.2318C13.943 27.2318 12.388 26.9193 10.9297 26.2943C9.47135 25.6693 8.19531 24.8099 7.10156 23.7161C6.00781 22.6224 5.14844 21.3468 4.52344 19.8893C3.89844 18.4318 3.58594 16.8745 3.58594 15.2174C3.58594 13.5603 3.89844 12.0078 4.52344 10.5599C5.14844 9.11196 6.00781 7.84113 7.10156 6.74738C8.19531 5.65363 9.47092 4.79425 10.9284 4.16925C12.3859 3.54425 13.9431 3.23175 15.6003 3.23175C17.2574 3.23175 18.8099 3.54425 20.2578 4.16925C21.7057 4.79425 22.9766 5.65363 24.0703 6.74738C25.1641 7.84113 26.0234 9.11429 26.6484 10.5669C27.2734 12.0195 27.5859 13.5716 27.5859 15.2231C27.5859 16.8747 27.2734 18.4297 26.6484 19.888C26.0234 21.3463 25.1641 22.6224 24.0703 23.7161C22.9766 24.8099 21.7034 25.6693 20.2508 26.2943C18.7982 26.9193 17.2461 27.2318 15.5946 27.2318Z" fill="#189E46"/>
</g>
</g>
<defs>
<clipPath id="clip0_3756_5024">
<rect width="30" height="30" fill="white" transform="translate(0.585938 0.23175)"/>
</clipPath>
</defs>
</svg>
