<svg width="31" height="31" viewBox="0 0 31 31" fill="none" xmlns="http://www.w3.org/2000/svg">
<g clip-path="url(#clip0_3817_21253)">
<mask id="mask0_3817_21253" style="mask-type:alpha" maskUnits="userSpaceOnUse" x="0" y="0" width="31" height="31">
<rect x="0.585938" y="0.23175" width="30" height="30" fill="#D9D9D9"/>
</mask>
<g mask="url(#mask0_3817_21253)">
<path d="M15.5859 16.9818L9.46094 23.1068C9.23177 23.3359 8.9401 23.4505 8.58594 23.4505C8.23177 23.4505 7.9401 23.3359 7.71094 23.1068C7.48177 22.8776 7.36719 22.5859 7.36719 22.2318C7.36719 21.8776 7.48177 21.5859 7.71094 21.3568L13.8359 15.2318L7.71094 9.10675C7.48177 8.87758 7.36719 8.58592 7.36719 8.23175C7.36719 7.87758 7.48177 7.58592 7.71094 7.35675C7.9401 7.12758 8.23177 7.013 8.58594 7.013C8.9401 7.013 9.23177 7.12758 9.46094 7.35675L15.5859 13.4818L21.7109 7.35675C21.9401 7.12758 22.2318 7.013 22.5859 7.013C22.9401 7.013 23.2318 7.12758 23.4609 7.35675C23.6901 7.58592 23.8047 7.87758 23.8047 8.23175C23.8047 8.58592 23.6901 8.87758 23.4609 9.10675L17.3359 15.2318L23.4609 21.3568C23.6901 21.5859 23.8047 21.8776 23.8047 22.2318C23.8047 22.5859 23.6901 22.8776 23.4609 23.1068C23.2318 23.3359 22.9401 23.4505 22.5859 23.4505C22.2318 23.4505 21.9401 23.3359 21.7109 23.1068L15.5859 16.9818Z" fill="white"/>
</g>
</g>
<defs>
<clipPath id="clip0_3817_21253">
<rect width="30" height="30" fill="white" transform="translate(0.585938 0.23175)"/>
</clipPath>
</defs>
</svg>
