<svg width="31" height="31" viewBox="0 0 31 31" fill="none" xmlns="http://www.w3.org/2000/svg">
<path d="M15.586 21.065C15.1849 21.065 14.8416 20.9222 14.556 20.6367C14.2705 20.3511 14.1277 20.0078 14.1277 19.6067C14.1277 19.2057 14.2705 18.8624 14.556 18.5768C14.8416 18.2912 15.1849 18.1484 15.586 18.1484C15.987 18.1484 16.3303 18.2912 16.6159 18.5768C16.9015 18.8624 17.0443 19.2057 17.0443 19.6067C17.0443 20.0078 16.9015 20.3511 16.6159 20.6367C16.3303 20.9222 15.987 21.065 15.586 21.065ZM15.586 16.69C15.1849 16.69 14.8416 16.5472 14.556 16.2617C14.2705 15.9761 14.1277 15.6328 14.1277 15.2317C14.1277 14.8307 14.2705 14.4874 14.556 14.2018C14.8416 13.9162 15.1849 13.7734 15.586 13.7734C15.987 13.7734 16.3303 13.9162 16.6159 14.2018C16.9015 14.4874 17.0443 14.8307 17.0443 15.2317C17.0443 15.6328 16.9015 15.9761 16.6159 16.2617C16.3303 16.5472 15.987 16.69 15.586 16.69ZM15.586 12.315C15.1849 12.315 14.8416 12.1722 14.556 11.8867C14.2705 11.6011 14.1277 11.2578 14.1277 10.8567C14.1277 10.4557 14.2705 10.1124 14.556 9.82676C14.8416 9.54117 15.1849 9.39838 15.586 9.39838C15.987 9.39838 16.3303 9.54117 16.6159 9.82676C16.9015 10.1124 17.0443 10.4557 17.0443 10.8567C17.0443 11.2578 16.9015 11.6011 16.6159 11.8867C16.3303 12.1722 15.987 12.315 15.586 12.315Z" fill="white"/>
<path d="M15.5859 27.7318C13.8568 27.7318 12.2318 27.4036 10.7109 26.7474C9.1901 26.0911 7.86719 25.2005 6.74219 24.0755C5.61719 22.9505 4.72656 21.6276 4.07031 20.1068C3.41406 18.5859 3.08594 16.9609 3.08594 15.2318C3.08594 13.5026 3.41406 11.8776 4.07031 10.3568C4.72656 8.83592 5.61719 7.513 6.74219 6.388C7.86719 5.263 9.1901 4.37238 10.7109 3.71613C12.2318 3.05988 13.8568 2.73175 15.5859 2.73175C17.3151 2.73175 18.9401 3.05988 20.4609 3.71613C21.9818 4.37238 23.3047 5.263 24.4297 6.388C25.5547 7.513 26.4453 8.83592 27.1016 10.3568C27.7578 11.8776 28.0859 13.5026 28.0859 15.2318C28.0859 16.9609 27.7578 18.5859 27.1016 20.1068C26.4453 21.6276 25.5547 22.9505 24.4297 24.0755C23.3047 25.2005 21.9818 26.0911 20.4609 26.7474C18.9401 27.4036 17.3151 27.7318 15.5859 27.7318ZM15.5859 25.2318C18.3776 25.2318 20.7422 24.263 22.6797 22.3255C24.6172 20.388 25.5859 18.0234 25.5859 15.2318C25.5859 12.4401 24.6172 10.0755 22.6797 8.138C20.7422 6.2005 18.3776 5.23175 15.5859 5.23175C12.7943 5.23175 10.4297 6.2005 8.49219 8.138C6.55469 10.0755 5.58594 12.4401 5.58594 15.2318C5.58594 18.0234 6.55469 20.388 8.49219 22.3255C10.4297 24.263 12.7943 25.2318 15.5859 25.2318Z" fill="white"/>
</svg>
