<svg width="31" height="31" viewBox="0 0 31 31" fill="none" xmlns="http://www.w3.org/2000/svg">
<path d="M4.33594 9.60675V6.79425C4.33594 6.04833 4.63225 5.33296 5.1597 4.80551C5.68714 4.27807 6.40251 3.98175 7.14843 3.98175H9.96091" stroke="white" stroke-width="1.8" stroke-linecap="round" stroke-linejoin="round"/>
<path d="M26.8359 9.60675V6.79425C26.8359 6.04833 26.5396 5.33296 26.0122 4.80551C25.4847 4.27807 24.7694 3.98175 24.0235 3.98175H21.211" stroke="white" stroke-width="1.8" stroke-linecap="round" stroke-linejoin="round"/>
<path d="M4.33594 20.8568V23.6693C4.33594 24.4152 4.63225 25.1305 5.1597 25.658C5.68714 26.1854 6.40251 26.4818 7.14843 26.4818H9.96091" stroke="white" stroke-width="1.8" stroke-linecap="round" stroke-linejoin="round"/>
<path d="M26.8359 20.8568V23.6693C26.8359 24.4152 26.5396 25.1305 26.0122 25.658C25.4847 26.1854 24.7693 26.4818 24.0234 26.4818H21.2109" stroke="white" stroke-width="1.8" stroke-linecap="round" stroke-linejoin="round"/>
<path d="M8.08609 21.9044C9.67878 20.9799 11.373 20.243 13.1349 19.7084C13.9156 19.419 14.0004 17.6272 13.4408 17.0101C12.6331 16.1212 11.9485 15.0783 11.9485 12.5611C11.9014 12.0596 11.9612 11.5538 12.124 11.0772C12.2867 10.6006 12.5486 10.164 12.8925 9.79622C13.2363 9.42846 13.6542 9.13795 14.1185 8.94389C14.5829 8.74983 15.0831 8.65664 15.5861 8.67047C16.089 8.65664 16.5892 8.74983 17.0536 8.94389C17.5179 9.13795 17.9358 9.42846 18.2796 9.79622C18.6235 10.164 18.8854 10.6006 19.0481 11.0772C19.2109 11.5538 19.2707 12.0596 19.2236 12.5611C19.2236 15.082 18.539 16.1212 17.7313 17.0101C17.1717 17.6272 17.2566 19.419 18.0372 19.7084C19.7991 20.243 21.4933 20.9799 23.086 21.9044" stroke="white" stroke-width="0.9" stroke-linecap="round" stroke-linejoin="round"/>
</svg>
