<svg width="31" height="31" viewBox="0 0 31 31" fill="none" xmlns="http://www.w3.org/2000/svg">
<path d="M15.3108 16.0464C15.6584 15.5698 16.061 15.1322 16.5195 14.7335L16.5215 14.7317C16.8915 14.4052 17.2246 14.0559 17.5202 13.6837C17.8549 13.2623 18.0234 12.7735 18.0234 12.2318C18.0234 11.6205 17.7816 11.1011 17.3156 10.6981C16.8604 10.3044 16.3196 10.1068 15.7109 10.1068C15.2782 10.1068 14.8629 10.2034 14.4692 10.3943C14.0696 10.5881 13.7358 10.8677 13.471 11.2287L13.4683 11.2325C13.3078 11.4571 13.1258 11.5726 12.9186 11.614C12.7027 11.6572 12.4949 11.6251 12.2801 11.5045C12.148 11.4181 12.0664 11.2983 12.0328 11.1166C11.9973 10.9248 12.0276 10.7504 12.1287 10.577L12.1339 10.5676C12.4699 9.95148 12.9563 9.49691 13.6031 9.19695C14.2724 8.88652 14.9738 8.73175 15.7109 8.73175C16.7768 8.73175 17.6998 9.04458 18.4953 9.66761C19.2727 10.2764 19.6484 11.039 19.6484 11.9818C19.6484 12.5802 19.4952 13.1142 19.1912 13.5933C18.8645 14.1081 18.473 14.5842 18.0155 15.022C17.6725 15.3437 17.3506 15.6817 17.05 16.036C16.7173 16.428 16.5012 16.8773 16.4054 17.3785C16.357 17.619 16.2523 17.8084 16.0929 17.9602C15.9465 18.0996 15.7746 18.1693 15.5547 18.1693C15.3571 18.1693 15.1913 18.1056 15.0406 17.9693C14.8994 17.8415 14.8359 17.6973 14.8359 17.513C14.8359 16.9666 14.9935 16.4816 15.3108 16.0464Z" fill="white"/>
<path d="M16.1908 21.2117C16.0091 21.3935 15.7996 21.4817 15.5234 21.4817C15.2472 21.4817 15.0377 21.3935 14.856 21.2117C14.6742 21.0299 14.5859 20.8204 14.5859 20.5443C14.5859 20.2681 14.6742 20.0586 14.856 19.8768C15.0377 19.695 15.2472 19.6068 15.5234 19.6068C15.7996 19.6068 16.0091 19.695 16.1908 19.8768C16.3726 20.0586 16.4609 20.2681 16.4609 20.5443C16.4609 20.8204 16.3726 21.0299 16.1908 21.2117Z" fill="white"/>
<path d="M15.5859 27.7318C13.8568 27.7318 12.2318 27.4036 10.7109 26.7474C9.1901 26.0911 7.86719 25.2005 6.74219 24.0755C5.61719 22.9505 4.72656 21.6276 4.07031 20.1068C3.41406 18.5859 3.08594 16.9609 3.08594 15.2318C3.08594 13.5026 3.41406 11.8776 4.07031 10.3568C4.72656 8.83592 5.61719 7.513 6.74219 6.388C7.86719 5.263 9.1901 4.37238 10.7109 3.71613C12.2318 3.05988 13.8568 2.73175 15.5859 2.73175C17.3151 2.73175 18.9401 3.05988 20.4609 3.71613C21.9818 4.37238 23.3047 5.263 24.4297 6.388C25.5547 7.513 26.4453 8.83592 27.1016 10.3568C27.7578 11.8776 28.0859 13.5026 28.0859 15.2318C28.0859 16.9609 27.7578 18.5859 27.1016 20.1068C26.4453 21.6276 25.5547 22.9505 24.4297 24.0755C23.3047 25.2005 21.9818 26.0911 20.4609 26.7474C18.9401 27.4036 17.3151 27.7318 15.5859 27.7318ZM15.5859 25.2318C18.3776 25.2318 20.7422 24.263 22.6797 22.3255C24.6172 20.388 25.5859 18.0234 25.5859 15.2318C25.5859 12.4401 24.6172 10.0755 22.6797 8.138C20.7422 6.2005 18.3776 5.23175 15.5859 5.23175C12.7943 5.23175 10.4297 6.2005 8.49219 8.138C6.55469 10.0755 5.58594 12.4401 5.58594 15.2318C5.58594 18.0234 6.55469 20.388 8.49219 22.3255C10.4297 24.263 12.7943 25.2318 15.5859 25.2318Z" fill="white"/>
</svg>
