<svg width="31" height="31" viewBox="0 0 31 31" fill="none" xmlns="http://www.w3.org/2000/svg">
<path d="M16.1555 21.6013C16.0004 21.7564 15.8216 21.8318 15.5859 21.8318C15.3503 21.8318 15.1715 21.7564 15.0164 21.6013C14.8613 21.4462 14.7859 21.2674 14.7859 21.0318C14.7859 20.7961 14.8613 20.6173 15.0164 20.4622C15.1715 20.3071 15.3503 20.2318 15.5859 20.2318C15.8216 20.2318 16.0004 20.3071 16.1555 20.4622C16.3106 20.6173 16.3859 20.7961 16.3859 21.0318C16.3859 21.2674 16.3106 21.4462 16.1555 21.6013Z" fill="white"/>
<path d="M15.5859 27.7318C13.8568 27.7318 12.2318 27.4036 10.7109 26.7474C9.1901 26.0911 7.86719 25.2005 6.74219 24.0755C5.61719 22.9505 4.72656 21.6276 4.07031 20.1068C3.41406 18.5859 3.08594 16.9609 3.08594 15.2318C3.08594 13.5026 3.41406 11.8776 4.07031 10.3568C4.72656 8.83592 5.61719 7.513 6.74219 6.388C7.86719 5.263 9.1901 4.37238 10.7109 3.71613C12.2318 3.05988 13.8568 2.73175 15.5859 2.73175C17.3151 2.73175 18.9401 3.05988 20.4609 3.71613C21.9818 4.37238 23.3047 5.263 24.4297 6.388C25.5547 7.513 26.4453 8.83592 27.1016 10.3568C27.7578 11.8776 28.0859 13.5026 28.0859 15.2318C28.0859 16.9609 27.7578 18.5859 27.1016 20.1068C26.4453 21.6276 25.5547 22.9505 24.4297 24.0755C23.3047 25.2005 21.9818 26.0911 20.4609 26.7474C18.9401 27.4036 17.3151 27.7318 15.5859 27.7318ZM15.5859 25.2318C18.3776 25.2318 20.7422 24.263 22.6797 22.3255C24.6172 20.388 25.5859 18.0234 25.5859 15.2318C25.5859 12.4401 24.6172 10.0755 22.6797 8.138C20.7422 6.2005 18.3776 5.23175 15.5859 5.23175C12.7943 5.23175 10.4297 6.2005 8.49219 8.138C6.55469 10.0755 5.58594 12.4401 5.58594 15.2318C5.58594 18.0234 6.55469 20.388 8.49219 22.3255C10.4297 24.263 12.7943 25.2318 15.5859 25.2318Z" fill="white"/>
<path d="M15.5859 10.2318V17.2318" stroke="white" stroke-width="1.5" stroke-linecap="round" stroke-linejoin="round"/>
</svg>
