<svg width="25" height="25" viewBox="0 0 25 25" fill="none" xmlns="http://www.w3.org/2000/svg">
<path d="M12.5859 17.6317C12.781 17.6317 12.923 17.5712 13.0492 17.445C13.1754 17.3188 13.2359 17.1769 13.2359 16.9818C13.2359 16.7866 13.1754 16.6447 13.0492 16.5185C12.923 16.3923 12.781 16.3318 12.5859 16.3318C12.3908 16.3318 12.2489 16.3923 12.1227 16.5185M12.5859 17.6317L12.1227 16.5185M12.5859 17.6317C12.3908 17.6317 12.2489 17.5712 12.1227 17.445M12.5859 17.6317L12.1227 17.445M12.1227 16.5185C11.9965 16.6447 11.9359 16.7866 11.9359 16.9818M12.1227 16.5185L11.9359 16.9818M12.1227 17.445C11.9965 17.3188 11.9359 17.1769 11.9359 16.9818M12.1227 17.445L11.9359 16.9818" fill="white" stroke="white" stroke-width="0.2"/>
<path d="M12.5859 10.7318V14.7318" stroke="white" stroke-width="1.3" stroke-linecap="round" stroke-linejoin="round"/>
<path d="M2.73164 19.7381L2.73174 19.7379L11.7442 3.73806C11.7442 3.73802 11.7442 3.73799 11.7443 3.73795C11.8406 3.57311 11.9649 3.44987 12.1169 3.36775C12.2695 3.28532 12.4258 3.24425 12.5859 3.24425C12.7461 3.24425 12.9024 3.28532 13.055 3.36775C13.207 3.44987 13.3312 3.57311 13.4276 3.73795C13.4276 3.73799 13.4277 3.73802 13.4277 3.73806L22.4401 19.7379L22.4402 19.7381C22.5366 19.9029 22.5805 20.0713 22.5725 20.2437C22.5645 20.4168 22.5203 20.5775 22.44 20.7258C22.3599 20.8739 22.2477 20.9931 22.1034 21.0837C21.9593 21.174 21.7992 21.2192 21.6229 21.2192H3.54903C3.37266 21.2192 3.21259 21.174 3.0685 21.0837C2.92416 20.9931 2.81199 20.8739 2.73184 20.7258C2.65156 20.5775 2.6074 20.4168 2.59936 20.2437C2.59136 20.0713 2.63529 19.9029 2.73164 19.7381ZM5.21887 19.2256L5.20831 19.2443H5.22975H19.9421H19.9636L19.953 19.2256L12.5968 6.22559L12.5859 6.20637L12.5751 6.22559L5.21887 19.2256Z" fill="white" stroke="white" stroke-width="0.025"/>
</svg>
