<svg width="18" height="18" viewBox="0 0 18 18" fill="none" xmlns="http://www.w3.org/2000/svg">
<path d="M9.52171 17.0308C9.71789 16.8291 9.82044 16.5724 9.82936 16.2607C9.83828 15.949 9.74465 15.6923 9.54846 15.4906L4.30502 10.1001H16.2633C16.5665 10.1001 16.8206 9.99468 17.0257 9.78383C17.2308 9.57297 17.3334 9.3117 17.3334 9C17.3334 8.6883 17.2308 8.42702 17.0257 8.21617C16.8206 8.00531 16.5665 7.89989 16.2633 7.89989H4.30502L9.54846 2.50935C9.74465 2.30766 9.83828 2.05097 9.82936 1.73927C9.82044 1.42757 9.71789 1.17088 9.52171 0.969194C9.32553 0.767508 9.07584 0.666664 8.77265 0.666664C8.46945 0.666664 8.21977 0.767508 8.02358 0.969194L0.960983 8.22992C0.853973 8.3216 0.778177 8.43619 0.733589 8.5737C0.689003 8.71122 0.666708 8.85332 0.666708 9C0.666708 9.14668 0.689003 9.28419 0.733589 9.41254C0.778177 9.54088 0.853973 9.66006 0.960983 9.77007L8.02358 17.0308C8.21977 17.2325 8.46945 17.3333 8.77265 17.3333C9.07584 17.3333 9.32553 17.2325 9.52171 17.0308Z" fill="#48A2AE"/>
</svg>
