<svg width="65" height="27" viewBox="0 0 65 27" fill="none" xmlns="http://www.w3.org/2000/svg">
<path d="M38.9471 20.192C38.1898 20.192 37.5071 20.0747 36.8991 19.84C36.2911 19.5947 35.7738 19.2373 35.3471 18.768C34.9205 18.288 34.5898 17.696 34.3551 16.992C34.1205 16.2773 34.0031 15.4453 34.0031 14.496C34.0031 13.5573 34.1205 12.7253 34.3551 12C34.5898 11.264 34.9205 10.6507 35.3471 10.16C35.7738 9.65867 36.2911 9.28 36.8991 9.024C37.5071 8.768 38.1898 8.64 38.9471 8.64C39.9818 8.64 40.8351 8.85333 41.5071 9.28C42.1791 9.696 42.7178 10.3573 43.1231 11.264L41.0271 12.352C40.8778 11.8827 40.6431 11.5093 40.3231 11.232C40.0138 10.944 39.5551 10.8 38.9471 10.8C38.2325 10.8 37.6565 11.0347 37.2191 11.504C36.7925 11.9627 36.5791 12.6347 36.5791 13.52V15.312C36.5791 16.1973 36.7925 16.8747 37.2191 17.344C37.6565 17.8027 38.2325 18.032 38.9471 18.032C39.5445 18.032 40.0191 17.872 40.3711 17.552C40.7338 17.2213 41.0005 16.8267 41.1711 16.368L43.1551 17.52C42.7391 18.3733 42.1898 19.0347 41.5071 19.504C40.8351 19.9627 39.9818 20.192 38.9471 20.192ZM49.1659 20.192C48.4085 20.192 47.7259 20.0747 47.1179 19.84C46.5099 19.5947 45.9925 19.2373 45.5659 18.768C45.1392 18.288 44.8085 17.696 44.5739 16.992C44.3392 16.2773 44.2219 15.4453 44.2219 14.496C44.2219 13.5573 44.3392 12.7253 44.5739 12C44.8085 11.264 45.1392 10.6507 45.5659 10.16C45.9925 9.65867 46.5099 9.28 47.1179 9.024C47.7259 8.768 48.4085 8.64 49.1659 8.64C50.2005 8.64 51.0539 8.85333 51.7259 9.28C52.3979 9.696 52.9365 10.3573 53.3419 11.264L51.2459 12.352C51.0965 11.8827 50.8619 11.5093 50.5419 11.232C50.2325 10.944 49.7739 10.8 49.1659 10.8C48.4512 10.8 47.8752 11.0347 47.4379 11.504C47.0112 11.9627 46.7979 12.6347 46.7979 13.52V15.312C46.7979 16.1973 47.0112 16.8747 47.4379 17.344C47.8752 17.8027 48.4512 18.032 49.1659 18.032C49.7632 18.032 50.2379 17.872 50.5899 17.552C50.9525 17.2213 51.2192 16.8267 51.3899 16.368L53.3739 17.52C52.9579 18.3733 52.4085 19.0347 51.7259 19.504C51.0539 19.9627 50.2005 20.192 49.1659 20.192ZM55.0758 8.832H59.2838C60.0198 8.832 60.6918 8.94933 61.2998 9.184C61.9078 9.41867 62.4251 9.77067 62.8518 10.24C63.2784 10.6987 63.6091 11.28 63.8438 11.984C64.0784 12.6773 64.1958 13.488 64.1958 14.416C64.1958 15.344 64.0784 16.16 63.8438 16.864C63.6091 17.5573 63.2784 18.1387 62.8518 18.608C62.4251 19.0667 61.9078 19.4133 61.2998 19.648C60.6918 19.8827 60.0198 20 59.2838 20H55.0758V8.832ZM59.2838 17.84C60.0091 17.84 60.5798 17.6373 60.9958 17.232C61.4118 16.8267 61.6198 16.176 61.6198 15.28V13.552C61.6198 12.656 61.4118 12.0053 60.9958 11.6C60.5798 11.1947 60.0091 10.992 59.2838 10.992H57.5078V17.84H59.2838Z" fill="white"/>
<circle cx="13.5" cy="13.5" r="13.5" fill="black"/>
<path d="M7.60684 13.5032C7.60684 16.755 10.2439 19.3942 13.4953 19.3942C14.3681 19.3942 15.1935 19.1994 15.9402 18.8569V21.6186C15.1652 21.8511 14.346 21.9768 13.4985 21.9768C8.81668 21.9768 5.02333 18.1814 5.02333 13.5001C5.02333 8.81868 8.81983 5.02332 13.4985 5.02332C14.3492 5.02332 15.1683 5.14899 15.9402 5.38149V8.14318C15.1935 7.80386 14.3681 7.60593 13.4953 7.60593C10.2439 7.61221 7.60684 10.2514 7.60684 13.5032ZM13.4985 17.0943C11.5136 17.0943 9.90679 15.4857 9.90679 13.5032C9.90679 11.5207 11.5136 9.91205 13.4985 9.91205C15.4834 9.91205 17.0902 11.5207 17.0902 13.5032C17.0902 15.4857 15.4802 17.0943 13.4985 17.0943ZM21.1766 17.0943H18.1583C18.9239 16.1015 19.387 14.8573 19.387 13.5063C19.387 12.1522 18.9239 10.908 18.1583 9.91205H21.1766C21.687 11.0023 21.9768 12.2213 21.9768 13.5063C21.9737 14.7882 21.687 16.0041 21.1766 17.0943Z" fill="white"/>
</svg>
