<svg width="62" height="63" viewBox="0 0 62 63" fill="none" xmlns="http://www.w3.org/2000/svg">
<path d="M9.30289 31.6788C9.30289 43.4569 18.7986 53.0159 30.5067 53.0159C33.6492 53.0159 36.6216 52.3103 39.3104 51.0699V61.0728C36.5195 61.9149 33.5698 62.37 30.518 62.37C13.6594 62.37 0 48.6233 0 31.6674C0 14.7116 13.6707 0.964844 30.518 0.964844C33.5811 0.964844 36.5308 1.42003 39.3104 2.26214V12.2649C36.6216 11.0359 33.6492 10.319 30.5067 10.319C18.7986 10.3418 9.30289 19.9008 9.30289 31.6788ZM30.518 44.6859C23.3707 44.6859 17.5847 38.8595 17.5847 31.6788C17.5847 24.4982 23.3707 18.6718 30.518 18.6718C37.6653 18.6718 43.4513 24.4982 43.4513 31.6788C43.4513 38.8595 37.654 44.6859 30.518 44.6859ZM58.1657 44.6859H47.2972C50.0541 41.0899 51.7218 36.5835 51.7218 31.6902C51.7218 26.7855 50.0541 22.2791 47.2972 18.6718H58.1657C60.0036 22.6205 61.0473 27.0359 61.0473 31.6902C61.036 36.3332 60.0036 40.7371 58.1657 44.6859Z" fill="#FBFBF9"/>
</svg>
