<svg width="316" height="195" viewBox="0 0 316 195" fill="none" xmlns="http://www.w3.org/2000/svg">
<g filter="url(#filter0_d_5165_347)">
<path d="M41.8063 160.456C44.3516 160.456 46.4207 159.424 47.659 158.079V165.552C45.8704 166.378 43.7695 166.791 41.6687 166.791C34.0961 166.791 28 160.763 28 153.395C28 146.028 34.0961 140 41.6687 140C43.7695 140 45.8704 140.45 47.659 141.238V148.712C46.4207 147.367 44.3516 146.335 41.8063 146.335C37.7104 146.335 34.747 149.331 34.747 153.395C34.747 157.46 37.7104 160.456 41.8063 160.456ZM64.7673 140C72.2393 140 78.1926 146.028 78.1926 153.395C78.1926 160.763 72.234 166.791 64.7673 166.791C57.3006 166.791 51.3421 160.763 51.3421 153.395C51.3421 146.028 57.3324 140 64.7673 140ZM64.7673 146.266C61.0842 146.266 58.0891 149.193 58.0891 153.395C58.0891 157.598 61.0842 160.524 64.7673 160.524C68.4504 160.524 71.4455 157.598 71.4455 153.395C71.4455 149.193 68.4504 146.266 64.7673 146.266ZM88.7272 140.413L99.7447 155.565V140.413H106.217V166.378H100.464L89.0659 150.987V166.378H82.594V140.413H88.7272ZM124.775 160.456C127.32 160.456 129.389 159.424 130.628 158.079V165.552C128.839 166.378 126.738 166.791 124.637 166.791C117.065 166.791 110.969 160.763 110.969 153.395C110.969 146.028 117.065 140 124.637 140C126.738 140 128.839 140.45 130.628 141.238V148.712C129.389 147.367 127.32 146.335 124.775 146.335C120.679 146.335 117.716 149.331 117.716 153.395C117.716 157.46 120.679 160.456 124.775 160.456ZM147.736 140C155.208 140 161.161 146.028 161.161 153.395C161.161 160.763 155.203 166.791 147.736 166.791C140.269 166.791 134.311 160.763 134.311 153.395C134.311 146.028 140.301 140 147.736 140ZM147.736 146.266C144.053 146.266 141.058 149.193 141.058 153.395C141.058 157.598 144.053 160.524 147.736 160.524C151.419 160.524 154.414 157.598 154.414 153.395C154.414 149.193 151.419 146.266 147.736 146.266ZM172.591 157.079V166.378H165.913V140.413H174.486C180.651 140.413 184.884 143.445 184.884 148.749C184.884 152.226 182.783 154.777 179.55 156.084L187.816 166.378H179.688L172.597 157.079H172.591ZM172.591 152.051H174.449C176.687 152.051 178.031 150.844 178.031 148.95C178.031 147.055 176.687 145.885 174.449 145.885H172.591V152.051ZM200.204 140.413C207.639 140.413 213.629 145.991 213.629 153.395C213.629 160.8 207.639 166.378 200.204 166.378H190.806V140.413H200.204ZM199.754 145.959H197.553V160.837H199.685C204.056 160.837 206.882 157.391 206.882 153.401C206.882 149.41 204.056 145.965 199.754 145.965V145.959ZM225.128 166.378H218.381V140.413H225.128V166.378ZM245.925 155.946V140.418H252.672V155.915C252.672 162.837 247.957 166.796 241.755 166.796C235.553 166.796 230.838 162.837 230.838 155.915V140.418H237.585V155.946C237.585 159.217 239.236 160.837 241.75 160.837C244.263 160.837 245.914 159.217 245.914 155.946H245.925Z" fill="white"/>
<path d="M264.991 149.024H264.795V166.378H258.578V140.413H268.484L273.389 155.153L278.808 140.413H288V166.378H281.782V149.024H281.586L275.326 166.378H271.251L264.991 149.024Z" fill="white"/>
</g>
<g filter="url(#filter1_d_5165_347)">
<path d="M158.637 79.4674C149.12 79.4674 141.416 71.6984 141.416 62.1236C141.416 52.5488 149.12 44.7798 158.637 44.7798C168.155 44.7798 175.859 52.5488 175.859 62.1236C175.859 71.6984 168.14 79.4674 158.637 79.4674Z" fill="#FBFBF9"/>
</g>
<g filter="url(#filter2_d_5165_347)">
<path d="M130.388 62.1237C130.388 77.8287 143.032 90.5748 158.622 90.5748C162.807 90.5748 166.765 89.634 170.345 87.9801V101.318C166.629 102.441 162.701 103.048 158.637 103.048C136.189 103.048 118 84.7177 118 62.1085C118 39.4993 136.204 21.1692 158.637 21.1692C162.716 21.1692 166.644 21.7761 170.345 22.899V36.2369C166.765 34.5981 162.807 33.6422 158.622 33.6422C143.032 33.6725 130.388 46.4186 130.388 62.1237Z" fill="#FBFBF9"/>
</g>
<g filter="url(#filter3_d_5165_347)">
<path d="M195.453 79.4674H180.98C184.651 74.6724 186.872 68.6636 186.872 62.1388C186.872 55.5988 184.651 49.5899 180.98 44.7798H195.453C197.9 50.0451 199.29 55.9326 199.29 62.1388C199.275 68.3297 197.9 74.2021 195.453 79.4674Z" fill="#FBFBF9"/>
</g>
<defs>
<filter id="filter0_d_5165_347" x="0" y="112" width="316" height="82.7961" filterUnits="userSpaceOnUse" color-interpolation-filters="sRGB">
<feFlood flood-opacity="0" result="BackgroundImageFix"/>
<feColorMatrix in="SourceAlpha" type="matrix" values="0 0 0 0 0 0 0 0 0 0 0 0 0 0 0 0 0 0 127 0" result="hardAlpha"/>
<feOffset/>
<feGaussianBlur stdDeviation="14"/>
<feComposite in2="hardAlpha" operator="out"/>
<feColorMatrix type="matrix" values="0 0 0 0 0 0 0 0 0 0 0 0 0 0 0 0 0 0 0.25 0"/>
<feBlend mode="normal" in2="BackgroundImageFix" result="effect1_dropShadow_5165_347"/>
<feBlend mode="normal" in="SourceGraphic" in2="effect1_dropShadow_5165_347" result="shape"/>
</filter>
<filter id="filter1_d_5165_347" x="113.416" y="16.7798" width="90.4437" height="90.6877" filterUnits="userSpaceOnUse" color-interpolation-filters="sRGB">
<feFlood flood-opacity="0" result="BackgroundImageFix"/>
<feColorMatrix in="SourceAlpha" type="matrix" values="0 0 0 0 0 0 0 0 0 0 0 0 0 0 0 0 0 0 127 0" result="hardAlpha"/>
<feOffset/>
<feGaussianBlur stdDeviation="14"/>
<feComposite in2="hardAlpha" operator="out"/>
<feColorMatrix type="matrix" values="0 0 0 0 0 0 0 0 0 0 0 0 0 0 0 0 0 0 0.25 0"/>
<feBlend mode="normal" in2="BackgroundImageFix" result="effect1_dropShadow_5165_347"/>
<feBlend mode="normal" in="SourceGraphic" in2="effect1_dropShadow_5165_347" result="shape"/>
</filter>
<filter id="filter2_d_5165_347" x="90" y="-6.83081" width="108.345" height="137.879" filterUnits="userSpaceOnUse" color-interpolation-filters="sRGB">
<feFlood flood-opacity="0" result="BackgroundImageFix"/>
<feColorMatrix in="SourceAlpha" type="matrix" values="0 0 0 0 0 0 0 0 0 0 0 0 0 0 0 0 0 0 127 0" result="hardAlpha"/>
<feOffset/>
<feGaussianBlur stdDeviation="14"/>
<feComposite in2="hardAlpha" operator="out"/>
<feColorMatrix type="matrix" values="0 0 0 0 0 0 0 0 0 0 0 0 0 0 0 0 0 0 0.25 0"/>
<feBlend mode="normal" in2="BackgroundImageFix" result="effect1_dropShadow_5165_347"/>
<feBlend mode="normal" in="SourceGraphic" in2="effect1_dropShadow_5165_347" result="shape"/>
</filter>
<filter id="filter3_d_5165_347" x="152.98" y="16.7798" width="74.3095" height="90.6877" filterUnits="userSpaceOnUse" color-interpolation-filters="sRGB">
<feFlood flood-opacity="0" result="BackgroundImageFix"/>
<feColorMatrix in="SourceAlpha" type="matrix" values="0 0 0 0 0 0 0 0 0 0 0 0 0 0 0 0 0 0 127 0" result="hardAlpha"/>
<feOffset/>
<feGaussianBlur stdDeviation="14"/>
<feComposite in2="hardAlpha" operator="out"/>
<feColorMatrix type="matrix" values="0 0 0 0 0 0 0 0 0 0 0 0 0 0 0 0 0 0 0.25 0"/>
<feBlend mode="normal" in2="BackgroundImageFix" result="effect1_dropShadow_5165_347"/>
<feBlend mode="normal" in="SourceGraphic" in2="effect1_dropShadow_5165_347" result="shape"/>
</filter>
</defs>
</svg>
