<svg width="30" height="30" viewBox="0 0 30 30" fill="none" xmlns="http://www.w3.org/2000/svg">
<path d="M3.75 9.375V6.5625C3.75 5.81658 4.04631 5.10121 4.57376 4.57376C5.1012 4.04632 5.81657 3.75 6.56249 3.75H9.37498" stroke="#999999" stroke-width="1.8" stroke-linecap="round" stroke-linejoin="round"/>
<path d="M26.25 9.375V6.5625C26.25 5.81658 25.9537 5.10121 25.4262 4.57376C24.8988 4.04632 24.1834 3.75 23.4375 3.75H20.625" stroke="#999999" stroke-width="1.8" stroke-linecap="round" stroke-linejoin="round"/>
<path d="M3.75 20.625V23.4375C3.75 24.1834 4.04631 24.8988 4.57376 25.4262C5.1012 25.9537 5.81657 26.25 6.56249 26.25H9.37498" stroke="#999999" stroke-width="1.8" stroke-linecap="round" stroke-linejoin="round"/>
<path d="M26.25 20.625V23.4375C26.25 24.1834 25.9537 24.8988 25.4262 25.4262C24.8988 25.9537 24.1834 26.25 23.4375 26.25H20.625" stroke="#999999" stroke-width="1.8" stroke-linecap="round" stroke-linejoin="round"/>
<path d="M7.50024 21.6727C9.09293 20.7482 10.7871 20.0113 12.549 19.4767C13.3297 19.1872 13.4146 17.3955 12.855 16.7783C12.0472 15.8895 11.3626 14.8466 11.3626 12.3294C11.3156 11.8279 11.3754 11.3221 11.5381 10.8455C11.7009 10.3688 11.9628 9.93222 12.3066 9.56447C12.6505 9.19671 13.0684 8.9062 13.5327 8.71214C13.997 8.51808 14.4972 8.42489 15.0002 8.43872C15.5032 8.42489 16.0034 8.51808 16.4677 8.71214C16.9321 8.9062 17.3499 9.19671 17.6938 9.56447C18.0376 9.93222 18.2996 10.3688 18.4623 10.8455C18.625 11.3221 18.6849 11.8279 18.6378 12.3294C18.6378 14.8503 17.9532 15.8895 17.1455 16.7783C16.5858 17.3955 16.6707 19.1872 17.4514 19.4767C19.2133 20.0113 20.9075 20.7482 22.5002 21.6727" stroke="#999999" stroke-width="0.9" stroke-linecap="round" stroke-linejoin="round"/>
</svg>
