<svg width="24" height="24" viewBox="0 0 24 24" fill="none" xmlns="http://www.w3.org/2000/svg">
<path d="M11.7798 12.6517C12.0579 12.2704 12.38 11.9203 12.7468 11.6014L12.7484 11.5999C13.0444 11.3388 13.3109 11.0593 13.5474 10.7616C13.8151 10.4244 13.9499 10.0334 13.9499 9.59999C13.9499 9.11098 13.7564 8.69548 13.3837 8.37308C13.0195 8.05814 12.5869 7.89999 12.0999 7.89999C11.7537 7.89999 11.4216 7.97731 11.1065 8.13004C10.7869 8.28503 10.5198 8.50872 10.308 8.79756L10.3058 8.80062C10.1775 8.98029 10.0319 9.07266 9.8661 9.10581C9.69337 9.14036 9.5271 9.11468 9.35525 9.01819C9.24963 8.94909 9.18434 8.85325 9.15741 8.70786C9.12901 8.55445 9.15325 8.41493 9.23417 8.27621L9.2383 8.26864C9.50714 7.77577 9.89621 7.41211 10.4136 7.17214C10.9491 6.9238 11.5102 6.79999 12.0999 6.79999C12.9527 6.79999 13.691 7.05025 14.3275 7.54868C14.9494 8.03571 15.2499 8.64576 15.2499 9.39999C15.2499 9.87874 15.1274 10.3059 14.8841 10.6892C14.6228 11.101 14.3096 11.482 13.9436 11.8322C13.6692 12.0896 13.4117 12.36 13.1712 12.6434C12.9051 12.957 12.7321 13.3164 12.6555 13.7174C12.6168 13.9098 12.533 14.0613 12.4055 14.1827C12.2884 14.2943 12.1508 14.35 11.9749 14.35C11.8169 14.35 11.6842 14.2991 11.5637 14.19C11.4507 14.0878 11.3999 13.9725 11.3999 13.825C11.3999 13.3878 11.526 12.9999 11.7798 12.6517Z" fill="#48A2AE"/>
<path d="M12.4839 16.7839C12.3385 16.9294 12.1709 17 11.95 17C11.729 17 11.5614 16.9294 11.416 16.7839C11.2706 16.6385 11.2 16.4709 11.2 16.25C11.2 16.0291 11.2706 15.8615 11.416 15.7161C11.5614 15.5706 11.729 15.5 11.95 15.5C12.1709 15.5 12.3385 15.5706 12.4839 15.7161C12.6293 15.8615 12.7 16.0291 12.7 16.25C12.7 16.4709 12.6293 16.6385 12.4839 16.7839Z" fill="#48A2AE"/>
<path d="M12 22C10.6167 22 9.31667 21.7375 8.1 21.2125C6.88333 20.6875 5.825 19.975 4.925 19.075C4.025 18.175 3.3125 17.1167 2.7875 15.9C2.2625 14.6833 2 13.3833 2 12C2 10.6167 2.2625 9.31667 2.7875 8.1C3.3125 6.88333 4.025 5.825 4.925 4.925C5.825 4.025 6.88333 3.3125 8.1 2.7875C9.31667 2.2625 10.6167 2 12 2C13.3833 2 14.6833 2.2625 15.9 2.7875C17.1167 3.3125 18.175 4.025 19.075 4.925C19.975 5.825 20.6875 6.88333 21.2125 8.1C21.7375 9.31667 22 10.6167 22 12C22 13.3833 21.7375 14.6833 21.2125 15.9C20.6875 17.1167 19.975 18.175 19.075 19.075C18.175 19.975 17.1167 20.6875 15.9 21.2125C14.6833 21.7375 13.3833 22 12 22ZM12 20C14.2333 20 16.125 19.225 17.675 17.675C19.225 16.125 20 14.2333 20 12C20 9.76667 19.225 7.875 17.675 6.325C16.125 4.775 14.2333 4 12 4C9.76667 4 7.875 4.775 6.325 6.325C4.775 7.875 4 9.76667 4 12C4 14.2333 4.775 16.125 6.325 17.675C7.875 19.225 9.76667 20 12 20Z" fill="#48A2AE"/>
</svg>
