<svg width="179" height="179" viewBox="0 0 179 179" fill="none" xmlns="http://www.w3.org/2000/svg">
<path d="M89.6465 25.0532L133.773 40.3917C135.104 40.8541 136.258 41.7177 137.074 42.8628C137.89 44.0079 138.328 45.3778 138.328 46.7824V93.8677C138.328 126.581 89.6465 144.631 89.6465 144.631C89.6465 144.631 40.9647 126.581 40.9647 93.8677V46.7824C40.9645 45.3778 41.4029 44.0079 42.2192 42.8628C43.0355 41.7177 44.1891 40.8541 45.5201 40.3917L89.6465 25.0532Z" fill="#FBFBF9"/>
<path d="M89.6465 25.0532L133.773 40.3917C135.104 40.8541 136.258 41.7177 137.074 42.8628C137.89 44.0079 138.328 45.3778 138.328 46.7824V93.8677C138.328 126.581 89.6465 144.631 89.6465 144.631C89.6465 144.631 40.9647 126.581 40.9647 93.8677V46.7824C40.9645 45.3778 41.4029 44.0079 42.2192 42.8628C43.0355 41.7177 44.1891 40.8541 45.5201 40.3917L89.6465 25.0532Z" stroke="#4486AB" stroke-width="2" stroke-linecap="round" stroke-linejoin="round"/>
<path d="M56.8138 82.5866C56.8138 86.8829 57.6631 91.1371 59.3131 95.1063C60.9631 99.0755 63.3815 102.682 66.4303 105.72C69.4791 108.758 73.0985 111.168 77.082 112.812C81.0654 114.456 85.3349 115.302 89.6465 115.302C93.9582 115.302 98.2276 114.456 102.211 112.812C106.194 111.168 109.814 108.758 112.863 105.72C115.911 102.682 118.33 99.0755 119.98 95.1063C121.63 91.1371 122.479 86.8829 122.479 82.5866C122.479 78.2903 121.63 74.0361 119.98 70.0669C118.33 66.0977 115.911 62.4912 112.863 59.4532C109.814 56.4153 106.194 54.0055 102.211 52.3614C98.2276 50.7173 93.9582 49.8711 89.6465 49.8711C85.3349 49.8711 81.0654 50.7173 77.082 52.3614C73.0985 54.0055 69.4791 56.4153 66.4303 59.4532C63.3815 62.4912 60.9631 66.0977 59.3131 70.0669C57.6631 74.0361 56.8138 78.2903 56.8138 82.5866Z" fill="#EAF0F5"/>
<path d="M56.8138 82.5866C56.8138 86.8829 57.6631 91.1371 59.3131 95.1063C60.9631 99.0755 63.3815 102.682 66.4303 105.72C69.4791 108.758 73.0985 111.168 77.082 112.812C81.0654 114.456 85.3349 115.302 89.6465 115.302C93.9582 115.302 98.2276 114.456 102.211 112.812C106.194 111.168 109.814 108.758 112.863 105.72C115.911 102.682 118.33 99.0755 119.98 95.1063C121.63 91.1371 122.479 86.8829 122.479 82.5866C122.479 78.2903 121.63 74.0361 119.98 70.0669C118.33 66.0977 115.911 62.4912 112.863 59.4532C109.814 56.4153 106.194 54.0055 102.211 52.3614C98.2276 50.7173 93.9582 49.8711 89.6465 49.8711C85.3349 49.8711 81.0654 50.7173 77.082 52.3614C73.0985 54.0055 69.4791 56.4153 66.4303 59.4532C63.3815 62.4912 60.9631 66.0977 59.3131 70.0669C57.6631 74.0361 56.8138 78.2903 56.8138 82.5866Z" stroke="#4486AB" stroke-width="2" stroke-linecap="round" stroke-linejoin="round"/>
<path d="M74.9299 76.9458H104.365V104.019H74.9299V76.9458Z" fill="#FBFBF9"/>
<path d="M102.1 71.3056C102.1 69.676 101.778 68.0624 101.152 66.5568C100.526 65.0513 99.609 63.6833 98.4526 62.531C97.2961 61.3787 95.9233 60.4647 94.4123 59.8411C92.9014 59.2175 91.282 58.8965 89.6466 58.8965C88.0111 58.8965 86.3917 59.2175 84.8808 59.8411C83.3698 60.4647 81.997 61.3787 80.8406 62.531C79.6841 63.6833 78.7668 65.0513 78.141 66.5568C77.5151 68.0624 77.193 69.676 77.193 71.3056V76.9459H83.986V71.3056C83.986 69.8097 84.5824 68.3751 85.644 67.3173C86.7055 66.2595 88.1453 65.6653 89.6466 65.6653C91.1478 65.6653 92.5876 66.2595 93.6492 67.3173C94.7107 68.3751 95.3071 69.8097 95.3071 71.3056V76.9459H102.1V71.3056Z" fill="#FBFBF9" stroke="#4486AB" stroke-width="2" stroke-linecap="round" stroke-linejoin="round"/>
<path d="M74.9299 76.9458H104.365V104.019H74.9299V76.9458Z" stroke="#4486AB" stroke-width="2" stroke-linecap="round" stroke-linejoin="round"/>
<path d="M93.044 89.3554C93.0457 88.7909 92.9057 88.2348 92.6366 87.738C92.3676 87.2411 91.9782 86.8191 91.5037 86.5105C91.0293 86.2019 90.4849 86.0164 89.9201 85.971C89.3554 85.9255 88.7882 86.0215 88.2701 86.2502C87.7521 86.4789 87.2997 86.8331 86.9542 87.2805C86.6086 87.7279 86.3808 88.2543 86.2915 88.8118C86.2022 89.3694 86.2542 89.9403 86.4429 90.4726C86.6316 91.005 86.9509 91.4819 87.3717 91.8599V94.9958C87.3717 95.5944 87.6104 96.1684 88.0351 96.5917C88.4599 97.0149 89.036 97.2527 89.6367 97.2527C90.2374 97.2527 90.8135 97.0149 91.2383 96.5917C91.6631 96.1684 91.9017 95.5944 91.9017 94.9958V91.8599C92.2589 91.5465 92.5453 91.1613 92.7422 90.7296C92.9391 90.298 93.042 89.8296 93.044 89.3554Z" fill="#EAF0F5" stroke="#4486AB" stroke-width="2" stroke-linecap="round" stroke-linejoin="round"/>
<path d="M62.4763 156.816C62.4763 157.26 63.1791 157.7 64.5445 158.11C65.91 158.521 67.9113 158.894 70.4343 159.208C72.9573 159.522 75.9525 159.771 79.2489 159.941C82.5453 160.111 86.0784 160.199 89.6465 160.199C93.2145 160.199 96.7476 160.111 100.044 159.941C103.34 159.771 106.336 159.522 108.859 159.208C111.382 158.894 113.383 158.521 114.748 158.11C116.114 157.7 116.817 157.26 116.817 156.816C116.817 156.371 116.114 155.931 114.748 155.521C113.383 155.11 111.382 154.737 108.859 154.423C106.336 154.109 103.34 153.86 100.044 153.69C96.7476 153.52 93.2145 153.432 89.6465 153.432C86.0784 153.432 82.5453 153.52 79.2489 153.69C75.9525 153.86 72.9573 154.109 70.4343 154.423C67.9113 154.737 65.91 155.11 64.5445 155.521C63.1791 155.931 62.4763 156.371 62.4763 156.816Z" fill="#EAF0F5"/>
</svg>
